<?xml version="1.0" standalone="no"?>
<!DOCTYPE svg PUBLIC "-//W3C//DTD SVG 20010904//EN"
 "http://www.w3.org/TR/2001/REC-SVG-20010904/DTD/svg10.dtd">
<svg version="1.0" xmlns="http://www.w3.org/2000/svg"
 width="700.000000pt" height="700.000000pt" viewBox="0 0 700.000000 700.000000"
 preserveAspectRatio="xMidYMid meet">
<metadata>
Created by potrace 1.11, written by Peter Selinger 2001-2013
</metadata>
<g transform="translate(0.000000,700.000000) scale(0.100000,-0.100000)"
fill="#000000" stroke="none">
<path d="M2197 6984 c-1 -1 -42 -4 -92 -8 -395 -27 -799 -189 -1130 -454 -102
-81 -280 -263 -364 -372 -306 -394 -472 -836 -473 -1255 -1 -216 55 -403 171
-575 17 -25 31 -49 31 -54 0 -4 -20 -40 -44 -80 -99 -158 -202 -423 -242 -619
-38 -189 -49 -305 -48 -512 1 -193 5 -240 34 -382 153 -738 939 -1494 1588
-1526 34 -2 66 -7 70 -13 5 -5 21 -40 37 -79 77 -186 220 -374 404 -529 79
-66 167 -133 216 -163 116 -70 162 -97 235 -134 47 -24 105 -52 130 -62 25
-11 59 -25 75 -32 17 -7 73 -26 125 -43 90 -30 133 -41 225 -62 22 -5 51 -12
65 -16 14 -4 129 -9 255 -11 187 -4 248 -2 320 11 272 50 570 167 815 320 192
119 398 304 514 459 59 80 140 226 170 307 17 44 17 45 64 46 278 3 594 139
879 378 118 98 300 289 362 380 8 12 18 23 21 26 21 17 154 234 205 335 136
270 179 459 180 790 0 192 -6 260 -40 465 -20 116 -91 344 -146 465 -12 28
-23 52 -23 55 -2 8 -105 193 -119 212 -9 14 -9 22 3 40 110 172 159 293 179
444 18 129 14 330 -9 424 -5 19 -11 53 -14 75 -6 38 -19 86 -53 200 -180 588
-679 1147 -1233 1382 -357 152 -710 198 -1137 148 -24 -2 -53 -7 -65 -9 -13
-3 -40 -8 -62 -11 -179 -25 -506 -142 -691 -247 l-90 -51 -45 27 c-85 50 -285
143 -385 179 -167 60 -368 103 -565 123 -59 6 -298 12 -303 8z"/>
</g>
</svg>
