<svg height="511pt" viewBox="0 0 511.99878 511" width="511pt" xmlns="http://www.w3.org/2000/svg"><path d="m486.078125 91.113281c-17.925781-35.859375-47.847656-64.550781-82.449219-79.003906-58.046875-24.265625-121.925781-6.941406-156.746094 19.386719l28.421876 217.949218 204.050781-40.886718c8.257812-9.972656 14.117187-19.066406 17.410156-26.972656 9.695313-23.210938 5.59375-57.886719-10.6875-90.472657zm0 0" fill="#4747d1"/><path d="m277.507812 234.085938-21.589843 6.597656-35.390625 10.5-189.039063-43.488282c-7.796875-9.597656-13.195312-18.292968-16.492187-26.089843-9.597656-23.09375-5.398438-57.882813 10.792968-90.273438 17.996094-35.988281 47.785157-64.578125 82.277344-78.972656 34.785156-14.699219 74.675782-15.597656 112.761719-3.300781 12.898437 4.199218 24.59375 9.898437 35.089844 16.496094 17.695312 11.097656 30.890625 24.890624 36.886719 39.585937 12.597656 29.988281 12.597656 111.363281-15.296876 168.945313zm0 0" fill="#979fef"/><path d="m277.507812 234.085938-21.589843 6.597656v-215.128906c17.695312 11.097656 30.890625 24.890624 36.886719 39.585937 12.597656 29.988281 12.597656 111.363281-15.296876 168.945313zm0 0" fill="#737ee6"/><path d="m441.734375 164.890625c-46.550781-12.625-140.113281 17.660156-177.984375 57.855469l25.410156 174 83 29.167968c5.636719 1.347657 11.273438 1.980469 16.867188 1.980469 54.285156 0 106.320312-59.382812 118.734375-105.304687 14.222656-52.457032-7.261719-141.78125-66.027344-157.699219zm0 0" fill="#615ad3"/><path d="m71.429688 164.890625c-26.898438 7.277344-49.5 30.738281-61.84375 66.058594-10.585938 30.328125-12.535157 64.578125-5.195313 91.640625 12.738281 47.050781 66.234375 105.242187 119.335937 105.230468 6.089844 0 12.195313-.761718 18.230469-2.402343l82.152344-28.9375 25.140625-172.839844c-37.515625-40.796875-130.609375-71.59375-177.820312-58.75zm0 0" fill="#737ee6"/><path d="m395.53125 213.011719-5.402344-1.832031c-28.074218-3.5-92.476562 26.152343-111.367187 47.914062l63.917969 90.441406c7 4.671875 13.035156 7.570313 18.453124 8.902344l2.648438.644531 2.726562-.320312c20.367188-2.492188 49.554688-37.429688 54.765626-65.605469 5.007812-27.136719-8.945313-70.570312-25.742188-80.144531zm0 0" fill="#ff9100"/><path d="m121.269531 210.476562-5.464843 1.757813c-16.941407 9.300781-31.613282 52.5-27.074219 79.691406 4.730469 28.277344 33.3125 63.714844 53.667969 66.496094l2.695312.382813 2.648438-.601563c6.679687-1.523437 14.410156-5.433594 23.652343-11.992187l60.390625-85.929688c-18.480468-22.085938-81.84375-53.011719-110.515625-49.804688zm0 0" fill="#fdbf00"/><path d="m390.875 406.394531c0 60.878907-80.675781 105.964844-134.957031 105.964844-54.285157 0-134.957031-45.085937-134.957031-105.964844 0-46.785156 50.683593-125.960937 98.96875-153.851562h71.976562c48.285156 27.890625 98.96875 107.066406 98.96875 153.851562zm0 0" fill="#979fef"/><path d="m390.875 406.394531c0 60.878907-80.675781 105.964844-134.957031 105.964844v-259.816406h35.988281c48.285156 27.890625 98.96875 107.066406 98.96875 153.851562zm0 0" fill="#737ee6"/><path d="m330.894531 373.40625v3l-.902343 2.695312c-6.296876 18.296876-46.484376 39.890626-74.074219 39.890626-28.792969 0-68.378907-22.195313-74.375-41.988282l-.902344-2.699218.300781-2.699219c1.5-26.09375 41.386719-82.472657 65.679688-97.769531h18.59375c24.890625 15.898437 64.480468 71.980468 65.679687 99.570312zm0 0" fill="#fdbf00"/><path d="m330.894531 373.40625v3l-.902343 2.695312c-6.296876 18.296876-46.484376 39.890626-74.074219 39.890626v-145.15625h9.296875c24.890625 15.898437 64.480468 71.980468 65.679687 99.570312zm0 0" fill="#ff9100"/><path d="m255.917969 211.457031c-24.894531 0-44.984375 20.09375-44.984375 44.984375 0 24.894532 20.089844 44.988282 44.984375 44.988282 24.890625 0 44.984375-20.09375 44.984375-44.988282 0-24.890625-20.09375-44.984375-44.984375-44.984375zm0 0" fill="#ffda2d"/><path d="m300.902344 256.441406c0 24.894532-20.09375 44.988282-44.984375 44.988282v-89.972657c24.890625 0 44.984375 20.09375 44.984375 44.984375zm0 0" fill="#fdbf00"/></svg>